<?xml version="1.0" encoding="utf-8"?>
<!-- Generator: Adobe Illustrator 17.1.0, SVG Export Plug-In . SVG Version: 6.00 Build 0)  -->
<!DOCTYPE svg PUBLIC "-//W3C//DTD SVG 1.1//EN" "http://www.w3.org/Graphics/SVG/1.1/DTD/svg11.dtd">
<svg version="1.1" id="Layer_1" xmlns="http://www.w3.org/2000/svg" xmlns:xlink="http://www.w3.org/1999/xlink" x="0px" y="0px"
	 viewBox="363.4 40.1 243.6 418.4" enable-background="new 363.4 40.1 243.6 418.4" xml:space="preserve">
<g>
	<g>
		<g>
			<path fill="#FFFFFF" d="M394.6,280.2c0,0,135.2-14.9,157.9-150.5c0,0,25.3,52.5,9.9,89.6c0,0-75.3,89.6-175.3,87.1L394.6,280.2z"
				/>
			<path fill="#FFFFFF" d="M383.2,343.1c0,0,152-121.8,75.3-303c0,0,70.8,44.1,80.2,100.5c0,0-21.8,165.4-144.1,239.6L383.2,343.1z"
				/>
			<path fill="#FFFFFF" d="M555,128.2c0,0,35.6,61.4,17.8,85.2C572.8,213.4,608,183.2,555,128.2z"/>
		</g>
		<g>
			<path fill="#FFFFFF" d="M368.8,413.4v14.9h-5.4v-31.7h5.4V411h15.8v-14.4h5.4v31.7h-5.4v-14.9H368.8z"/>
			<path fill="#FFFFFF" d="M413.9,429.3c-1.5,0-3,0-4.5-0.5c-1.5-0.5-3-1-4-1.5c-1.5-0.5-2.5-1.5-3.5-2.5c-1-1-2-2-2.5-3.5
				c-0.5-1-1.5-2.5-1.5-4c-0.5-1.5-0.5-3-0.5-4.5c0-1.5,0-3,0.5-4.5c0.5-1.5,1-2.5,1.5-4c0.5-1,1.5-2.5,2.5-3.5c1-1,2-2,3.5-2.5
				c1.5-0.5,2.5-1.5,4-1.5c1.5-0.5,3-0.5,4.5-0.5c1.5,0,3,0,4.5,0.5c1.5,0.5,3,1,4,1.5c1.5,0.5,2.5,1.5,3.5,2.5c1,1,2,2,2.5,3.5
				c0.5,1,1.5,2.5,1.5,4c0.5,1.5,0.5,3,0.5,4.5c0,1.5,0,3-0.5,4.5c-0.5,1.5-1,3-1.5,4c-0.5,1-1.5,2.5-2.5,3.5s-2,2-3.5,2.5
				c-1.5,0.5-2.5,1.5-4,1.5C416.9,429.3,415.4,429.3,413.9,429.3z M413.9,427.8c2,0,3.5-0.5,5-1c1.5-1,2.5-2,3.5-3c1-1.5,1.5-3,2-5
				s0.5-4,0.5-5.9c0-2,0-4-0.5-5.9c-0.5-2-1-3.5-2-4.5c-1-1.5-2-2.5-3.5-3c-1.5-0.5-3-1-5-1c-2,0-3.5,0.5-5,1c-1.5,0.5-2.5,2-3.5,3
				c-1,1.5-1.5,3-2,4.5c-0.5,2-0.5,4-0.5,5.9c0,2,0,4,0.5,5.9c0.5,2,1,3.5,2,5c1,1.5,2,2.5,3.5,3
				C410.4,427.3,411.9,427.8,413.9,427.8z"/>
			<path fill="#FFFFFF" d="M446.1,427.3c1,0,1.5,0,2.5-0.5c1,0,1.5-0.5,2-1c0.5-0.5,1-1,1.5-1.5c0.5-0.5,0.5-1.5,0.5-2
				c0-1-0.5-2-1-2.5c-0.5-1-1-1.5-2-2c-1-0.5-1.5-1-3-2c-1-0.5-2-1-3-1.5c-1-0.5-2-1-3-2c-1-0.5-2-1.5-3-2c-1-1-1.5-1.5-2-2.5
				c-0.5-1-1-2-1-3s0-2.5,0.5-3.5s1-2,2-2.5c1-1,2-1.5,3-2c1.5-0.5,3-0.5,4.5-0.5c3,0,5.4,0.5,6.9,2c1.5,1.5,3,3,4,5.4l-2.5,1.5
				c-0.5-1-0.5-2-1-2.5c-0.5-1-1-1.5-2-2c-0.5-0.5-1.5-1-2.5-1.5c-1-0.5-2-0.5-3-0.5s-2,0-2.5,0.5c-1,0.5-1.5,0.5-2,1
				c-0.5,0.5-1,1-1,1.5c0.5,0,0.5,0.5,0.5,1c0,1,0.5,1.5,1,2.5c0.5,0.5,1,1.5,2,2c1,0.5,2,1,3,2c1,0.5,2,1,3.5,1.5c1,0.5,2,1,3.5,2
				c1,0.5,2,1.5,3,2c1,1,1.5,1.5,2,2.5c0.5,1,1,2,1,3c0,1.5,0,2.5-0.5,3.5s-1,2-2,3c-1,1-2,1.5-3.5,2c-1.5,0.5-3,0.5-5,0.5
				c-1.5,0-3,0-4-0.5c-1-0.5-2.5-1-3-1.5c-1-0.5-1.5-1.5-2.5-2.5c-0.5-1-1-2-1.5-3l3-1c0.5,1,1,2,1.5,3s1,1.5,2,2
				c1,0.5,1.5,1,2.5,1.5C444.1,427.3,445.1,427.3,446.1,427.3z"/>
			<path fill="#FFFFFF" d="M462.9,397.1h9.9c1.5,0,3,0,4.5,0.5c1.5,0.5,2.5,1,4,2c1,1,2,1.5,2.5,3c0.5,1,1,2.5,1,4
				c0,1.5-0.5,2.5-1,4c-0.5,1-1.5,2-2.5,2.5c-1,0.5-2,1-3.5,1.5c-1.5,0.5-2.5,0.5-4,0.5c-0.5,0-1,0-1.5,0c-0.5,0-1,0-2,0
				c-0.5,0-1,0-1.5,0c-0.5,0-1,0-1,0v14.4h-5.4v-32.2H462.9z M468.4,412.4c0.5,0,1,0.5,2,0.5c0.5,0,1.5,0,2,0c1,0,2,0,3-0.5
				c1-0.5,1.5-1,2-1.5s1-1.5,1.5-2c0.5-1,0.5-1.5,0.5-2.5c0-1,0-2-0.5-3c-0.5-1-1-1.5-1.5-2c-0.5-0.5-1.5-1-2.5-1.5s-2-0.5-3-0.5h-4
				v12.9H468.4z"/>
			<path fill="#FFFFFF" d="M489.7,397.1h5.4v31.7h-5.4V397.1z"/>
			<path fill="#FFFFFF" d="M527.8,397.1v2h-11.4v29.2h-5.4v-29.2h-11.4v-2H527.8z"/>
			<path fill="#FFFFFF" d="M542.1,396.6l14.9,32.2h-5.4l-5-10.4h-13.4l-5,10.4h-2.5l15.3-32.2H542.1z M534.2,415.9h11.4l-5.9-12.4
				L534.2,415.9z"/>
			<path fill="#FFFFFF" d="M561,397.1h5.4v29.2h15.8v2H561V397.1z"/>
			<path fill="#FFFFFF" d="M595.1,427.3c1,0,1.5,0,2.5-0.5c1,0,1.5-0.5,2-1c0.5-0.5,1-1,1.5-1.5c0.5-0.5,0.5-1.5,0.5-2
				c0-1,0-2-1-2.5c-0.5-1-1-1.5-2-2c-1-0.5-1.5-1-3-2c-1-0.5-2-1-3-1.5c-1-0.5-2-1-3-2c-1-0.5-2-1.5-3-2c-1-1-1.5-1.5-2-2.5
				c-0.5-1-1-2-1-3s0-2.5,0.5-3.5s1-2,2-2.5c1-0.5,2-1.5,3-2c1.5-0.5,3-0.5,4.5-0.5c3,0,5.4,0.5,6.9,2c1.5,1.5,3,3,4,5.4l-2.5,1.5
				c-0.5-1-0.5-2-1-2.5c-0.5-1-1-1.5-2-2c-0.5-0.5-1.5-1-2.5-1.5c-1-0.5-2-0.5-3-0.5c-1,0-2,0-2.5,0.5c-1,0.5-1.5,0.5-2,1
				c-0.5,0.5-1,1-1,1.5c0,0,0,0.5,0,1c0,1,0.5,1.5,1,2.5c0.5,0.5,1,1.5,2,2c1,0.5,2,1,3,2c1,0.5,2,1,3.5,1.5c1,0.5,2,1,3.5,2
				c1,0.5,2,1.5,3,2c1,1,1.5,1.5,2,2.5c0.5,1,1,2,1,3c0,1.5,0,2.5-0.5,3.5s-1,2-2,3c-1,1-2,1.5-3.5,2c-1.5,0.5-3,0.5-5,0.5
				c-1.5,0-3,0-4-0.5c-1-0.5-2.5-1-3-1.5c-1-0.5-1.5-1.5-2.5-2.5c-0.5-1-1-2-1.5-3l3-1c0.5,1,1,2,1.5,3c0.5,1,1,1.5,2,2
				c1,0.5,1.5,1,2.5,1.5C593.1,427.3,593.6,427.3,595.1,427.3z"/>
			<path fill="#FFFFFF" d="M366.4,438.2h3.5v20.3h-3.5V438.2z"/>
			<path fill="#FFFFFF" d="M374.8,438.2h2l13.4,14.9l0,0v-14.9h1.5V459h-1l-14.4-16.3l0,0v15.8h-1.5
				C374.8,458.5,374.8,438.2,374.8,438.2z"/>
			<path fill="#FFFFFF" d="M412.9,438.2v1.5h-7.4v18.8H402v-18.8h-7.4v-1.5H412.9z"/>
			<path fill="#FFFFFF" d="M430.2,438.2v1.5h-10.9v7.4h6.9v1.5h-6.9v8.9h10.9v1.5h-14.4v-20.3h14.4V438.2z"/>
			<path fill="#FFFFFF" d="M434.2,438.2h6.9c1,0,2.5,0,3.5,0.5s1.5,0.5,2.5,1c0.5,0.5,1,1,1.5,1.5c0.5,0.5,0.5,1.5,0.5,2
				c0,0.5,0,1-0.5,2c0,0.5-0.5,1-1,1.5c-0.5,0.5-1,1-1.5,1c-0.5,0.5-1.5,0.5-2,1l7.4,9.9h-4l-7.9-9.4h-2.5v9.4h-3.5v-20.3H434.2z
				 M437.7,448.1h2c1,0,1.5,0,2-0.5c0.5,0,1-0.5,1.5-1c0.5-0.5,1-1,1-1.5c0.5-0.5,0.5-1,0.5-2c0-0.5,0-1-0.5-1.5c0-0.5-0.5-1-1-1.5
				c-0.5-0.5-1-0.5-1.5-1c-0.5,0-1-0.5-1.5-0.5h-3v9.4H437.7z"/>
			<path fill="#FFFFFF" d="M453.5,438.2h2l13.4,14.9l0,0v-14.9h1.5V459h-1L455,442.7l0,0v15.8h-1.5
				C453.5,458.5,453.5,438.2,453.5,438.2z"/>
			<path fill="#FFFFFF" d="M483.7,437.7l9.4,20.8h-3.5l-3-6.9h-8.9l-3,6.9h-1.5l9.9-20.8H483.7z M478.3,450.6h7.4l-3.5-7.9
				L478.3,450.6z"/>
			<path fill="#FFFFFF" d="M510,438.2v1.5h-7.4v18.8h-3.5v-18.8h-7.4v-1.5H510z"/>
			<path fill="#FFFFFF" d="M512.9,438.2h3.5v20.3h-3.5V438.2z"/>
			<path fill="#FFFFFF" d="M531.7,459c-1,0-2,0-3-0.5c-1-0.5-2-0.5-2.5-1c-1-0.5-1.5-1-2.5-1.5c-0.5-0.5-1.5-1.5-2-2
				c-0.5-1-1-1.5-1-2.5c-0.5-1-0.5-2-0.5-3s0-2,0.5-3c0.5-1,0.5-2,1-2.5c0.5-1,1-1.5,2-2c0.5-0.5,1.5-1,2.5-1.5c1-0.5,1.5-1,2.5-1
				c1-0.5,2-0.5,3-0.5c1,0,2,0,3,0.5c1,0,2,0.5,2.5,1c1,0.5,1.5,1,2.5,1.5c0.5,0.5,1.5,1.5,2,2c0.5,1,1,1.5,1,2.5c0.5,1,0.5,2,0.5,3
				s0,2-0.5,3c-0.5,1-0.5,2-1,2.5c-0.5,1-1,1.5-2,2c-0.5,0.5-1.5,1-2.5,1.5c-1,0.5-1.5,1-2.5,1C533.7,459,532.7,459,531.7,459z
				 M531.7,458c1,0,2,0,3-0.5c1-0.5,1.5-1,2.5-2c1-1,1-2,1.5-3c0.5-1,0.5-2.5,0.5-4s0-2.5-0.5-4c-0.5-1-1-2-1.5-3
				c-0.5-1-1.5-1.5-2.5-2c-1-0.5-2-0.5-3-0.5s-2.5,0-3,0.5c-0.5,0.5-1.5,1-2.5,2c-0.5,1-1,2-1.5,3c-0.5,1-0.5,2.5-0.5,4s0,2.5,0.5,4
				c0.5,1,1,2,1.5,3c0.5,1,1.5,1.5,2.5,2C529.8,458,530.8,458,531.7,458z"/>
			<path fill="#FFFFFF" d="M547.6,438.2h2l13.4,14.9l0,0v-14.9h1.5V459h-1l-14.4-16.3l0,0v15.8h-1.5V438.2z"/>
			<path fill="#FFFFFF" d="M577.3,437.7l9.4,20.8h-3.5l-3-6.9h-8.9l-3,6.9h-1.5l9.9-20.8H577.3z M572.3,450.6h7.4l-3.5-7.9
				L572.3,450.6z"/>
			<path fill="#FFFFFF" d="M589.7,438.2h3.5V457h10.4v1.5h-13.9V438.2z"/>
		</g>
	</g>
</g>
</svg>
