<?xml version="1.0" encoding="utf-8"?>
<!-- Generator: Adobe Illustrator 17.1.0, SVG Export Plug-In . SVG Version: 6.00 Build 0)  -->
<!DOCTYPE svg PUBLIC "-//W3C//DTD SVG 1.1//EN" "http://www.w3.org/Graphics/SVG/1.1/DTD/svg11.dtd">
<svg version="1.1" xmlns="http://www.w3.org/2000/svg" xmlns:xlink="http://www.w3.org/1999/xlink" x="0px" y="0px"
	 viewBox="0 0 307.5 79.4" enable-background="new 0 0 307.5 79.4" xml:space="preserve">
<g id="Layer_1">
	<g>
		<path fill="#FF6C2C" d="M6.7,21.7v19.1H0V0.9h6.7v18.2h20.1V0.9h6.7v39.9h-6.7V21.7H6.7z"/>
		<path fill="#FF6C2C" d="M63.8,41.8c-2.1,0-4-0.3-5.9-0.8c-1.9-0.5-3.6-1.2-5.3-2.1c-1.6-0.9-3.1-2-4.4-3.3
			c-1.3-1.3-2.5-2.7-3.4-4.3c-0.9-1.6-1.7-3.2-2.2-5c-0.5-1.8-0.8-3.7-0.8-5.6c0-1.9,0.3-3.7,0.8-5.5c0.5-1.8,1.2-3.4,2.2-4.9
			c0.9-1.5,2.1-2.9,3.4-4.2c1.3-1.3,2.8-2.3,4.4-3.2c1.6-0.9,3.4-1.6,5.3-2.1C59.7,0.2,61.7,0,63.8,0c2.1,0,4,0.2,5.9,0.7
			c1.9,0.5,3.6,1.2,5.3,2.1c1.6,0.9,3.1,2,4.4,3.2s2.5,2.6,3.4,4.2c0.9,1.5,1.7,3.2,2.2,4.9c0.5,1.8,0.8,3.6,0.8,5.5
			c0,1.9-0.3,3.8-0.8,5.6c-0.5,1.8-1.2,3.5-2.2,5.1c-0.9,1.6-2.1,3-3.4,4.3c-1.3,1.3-2.8,2.4-4.4,3.3c-1.6,0.9-3.4,1.6-5.3,2.1
			C67.8,41.5,65.8,41.8,63.8,41.8z M63.8,39.8c2.3,0,4.3-0.5,6-1.4c1.8-1,3.2-2.3,4.4-4c1.2-1.7,2.1-3.7,2.7-6.1
			c0.6-2.3,0.9-4.9,0.9-7.7c0-2.7-0.3-5.2-0.9-7.5c-0.6-2.3-1.5-4.2-2.7-5.9c-1.2-1.7-2.7-2.9-4.4-3.9c-1.8-0.9-3.8-1.4-6-1.4
			c-2.3,0-4.4,0.5-6.1,1.4c-1.8,0.9-3.2,2.2-4.4,3.9c-1.2,1.7-2.1,3.6-2.7,5.9c-0.6,2.3-0.9,4.8-0.9,7.5c0,2.8,0.3,5.3,0.9,7.7
			c0.6,2.3,1.5,4.4,2.7,6.1c1.2,1.7,2.7,3,4.4,4C59.4,39.3,61.4,39.8,63.8,39.8z"/>
		<path fill="#FF6C2C" d="M105,39.2c1,0,2-0.1,2.9-0.4c1-0.3,1.8-0.7,2.6-1.2c0.8-0.5,1.4-1.2,1.8-2c0.5-0.8,0.7-1.7,0.7-2.7
			c0-1.2-0.3-2.3-0.9-3.3c-0.6-0.9-1.5-1.8-2.5-2.6c-1-0.8-2.2-1.6-3.5-2.3c-1.3-0.7-2.7-1.4-4-2.1c-1.4-0.7-2.7-1.4-4-2.2
			c-1.3-0.8-2.5-1.6-3.5-2.6c-1-0.9-1.8-2-2.5-3.2c-0.6-1.2-0.9-2.5-0.9-4.1c0-1.5,0.3-2.9,0.9-4.3c0.6-1.3,1.4-2.4,2.5-3.4
			c1.1-1,2.5-1.7,4.1-2.2c1.6-0.5,3.5-0.8,5.6-0.8c3.8,0,6.8,0.8,9,2.4c2.2,1.6,3.8,3.9,4.7,6.9l-3.4,1.6c-0.4-1.2-0.9-2.3-1.5-3.4
			c-0.6-1-1.4-1.9-2.2-2.6c-0.9-0.7-1.9-1.3-3-1.7c-1.1-0.4-2.4-0.6-3.8-0.6c-1.3,0-2.4,0.2-3.3,0.5c-0.9,0.4-1.7,0.8-2.3,1.4
			c-0.6,0.6-1.1,1.2-1.4,1.9c-0.3,0.7-0.5,1.4-0.5,2.2c0,1.1,0.3,2,1,2.9c0.6,0.9,1.5,1.7,2.5,2.5c1,0.8,2.3,1.5,3.6,2.2
			c1.4,0.7,2.7,1.4,4.1,2.2c1.4,0.7,2.8,1.5,4.1,2.3c1.4,0.8,2.6,1.7,3.6,2.6c1,1,1.9,2,2.5,3.1c0.6,1.1,1,2.4,1,3.8
			c0,1.6-0.3,3.1-0.9,4.5c-0.6,1.4-1.5,2.6-2.7,3.6c-1.2,1-2.7,1.9-4.5,2.5c-1.8,0.6-3.9,0.9-6.2,0.9c-1.9,0-3.6-0.2-5.1-0.6
			c-1.5-0.4-2.8-1-4-1.8c-1.2-0.8-2.1-1.8-3-3c-0.8-1.2-1.5-2.5-2-4l3.6-1.5c0.4,1.3,1,2.5,1.7,3.5c0.7,1,1.5,1.9,2.5,2.6
			c0.9,0.7,2,1.3,3.2,1.6C102.5,39,103.7,39.2,105,39.2z"/>
		<path fill="#FF6C2C" d="M126.4,0.9H139c2.1,0,4,0.3,5.9,0.8c1.8,0.5,3.4,1.2,4.8,2.2c1.3,1,2.4,2.2,3.2,3.6c0.8,1.4,1.2,3,1.2,4.8
			c0,1.8-0.4,3.4-1.1,4.7c-0.8,1.3-1.7,2.5-3,3.4c-1.2,0.9-2.6,1.5-4.2,2c-1.6,0.4-3.2,0.6-4.8,0.6c-0.7,0-1.4,0-2.2-0.1
			c-0.8,0-1.5-0.1-2.2-0.2s-1.4-0.1-2-0.2c-0.6-0.1-1.1-0.2-1.4-0.3v18.5h-6.7V0.9z M133.1,20.1c0.7,0.2,1.6,0.4,2.4,0.6
			c0.9,0.2,1.8,0.3,2.6,0.3c1.5,0,2.7-0.2,3.8-0.6c1.1-0.4,2-1,2.7-1.8c0.7-0.8,1.3-1.6,1.6-2.6c0.4-1,0.5-2.1,0.5-3.2
			c0-1.3-0.2-2.6-0.7-3.7c-0.5-1.1-1.1-2-1.9-2.8c-0.8-0.8-1.7-1.4-2.8-1.8c-1.1-0.4-2.3-0.6-3.5-0.6h-4.8V20.1z"/>
		<path fill="#FF6C2C" d="M159.9,0.9h6.7v39.9h-6.7V0.9z"/>
		<path fill="#FF6C2C" d="M208.4,0.9v2.6h-14.4v37.3h-6.7V3.5h-14.5V0.9H208.4z"/>
		<path fill="#FF6C2C" d="M226.4,0l18.8,40.8h-6.8l-6.1-13.3h-17.1l-6.3,13.3h-3.4L224.7,0H226.4z M216.3,24.9H231l-7.3-15.8
			L216.3,24.9z"/>
		<path fill="#FF6C2C" d="M250.3,0.9h6.7v37.3h20.1v2.6h-26.8V0.9z"/>
		<path fill="#FF6C2C" d="M293.6,39.2c1,0,2-0.1,2.9-0.4c1-0.3,1.8-0.7,2.6-1.2c0.8-0.5,1.4-1.2,1.8-2c0.5-0.8,0.7-1.7,0.7-2.7
			c0-1.2-0.3-2.3-0.9-3.3c-0.6-0.9-1.5-1.8-2.5-2.6c-1-0.8-2.2-1.6-3.5-2.3c-1.3-0.7-2.7-1.4-4-2.1c-1.4-0.7-2.7-1.4-4-2.2
			c-1.3-0.8-2.5-1.6-3.5-2.6c-1-0.9-1.8-2-2.5-3.2c-0.6-1.2-0.9-2.5-0.9-4.1c0-1.5,0.3-2.9,0.9-4.3c0.6-1.3,1.4-2.4,2.5-3.4
			c1.1-1,2.5-1.7,4.1-2.2c1.6-0.5,3.5-0.8,5.6-0.8c3.8,0,6.8,0.8,9,2.4c2.2,1.6,3.8,3.9,4.7,6.9l-3.4,1.6c-0.4-1.2-0.9-2.3-1.5-3.4
			c-0.6-1-1.4-1.9-2.2-2.6c-0.9-0.7-1.9-1.3-3-1.7c-1.1-0.4-2.4-0.6-3.8-0.6c-1.3,0-2.4,0.2-3.3,0.5c-0.9,0.4-1.7,0.8-2.3,1.4
			c-0.6,0.6-1.1,1.2-1.4,1.9c-0.3,0.7-0.5,1.4-0.5,2.2c0,1.1,0.3,2,1,2.9c0.7,0.9,1.5,1.7,2.6,2.5c1,0.8,2.3,1.5,3.6,2.2
			c1.4,0.7,2.7,1.4,4.1,2.2c1.4,0.7,2.8,1.5,4.1,2.3c1.4,0.8,2.6,1.7,3.6,2.6c1.1,1,1.9,2,2.6,3.1c0.6,1.1,1,2.4,1,3.8
			c0,1.6-0.3,3.1-0.9,4.5c-0.6,1.4-1.5,2.6-2.7,3.6c-1.2,1-2.7,1.9-4.5,2.5c-1.8,0.6-3.9,0.9-6.2,0.9c-1.9,0-3.6-0.2-5.1-0.6
			c-1.5-0.4-2.8-1-4-1.8c-1.2-0.8-2.1-1.8-3-3c-0.8-1.2-1.5-2.5-2-4l3.6-1.5c0.4,1.3,1,2.5,1.7,3.5c0.7,1,1.5,1.9,2.5,2.6
			c0.9,0.7,2,1.3,3.2,1.6C291.1,39,292.3,39.2,293.6,39.2z"/>
		<path fill="#FF6C2C" d="M3.5,53h4.3v25.8H3.5V53z"/>
		<path fill="#FF6C2C" d="M14.3,53h2.4l16.9,18.9h0.2V53h1.9v26.4h-1l-18.3-21h-0.1v20.4h-1.9V53z"/>
		<path fill="#FF6C2C" d="M62.7,53v1.7h-9.3v24.2h-4.3V54.6h-9.4V53H62.7z"/>
		<path fill="#FF6C2C" d="M84.7,53v1.7H71.1v9.2h9.1v1.7h-9.1v11.6h13.6v1.7H66.7V53H84.7z"/>
		<path fill="#FF6C2C" d="M89.5,53h8.9c1.6,0,2.9,0.2,4.1,0.5c1.2,0.3,2.1,0.8,2.9,1.4c0.8,0.6,1.4,1.3,1.8,2.1s0.6,1.7,0.6,2.7
			c0,0.8-0.2,1.6-0.5,2.3c-0.3,0.7-0.7,1.3-1.3,1.9c-0.6,0.6-1.2,1.1-2,1.5s-1.6,0.7-2.6,1l9.4,12.5h-5l-9-12.1h-3v12.1h-4.3V53z
			 M93.8,65.4h2.5c1,0,1.9-0.1,2.7-0.4c0.8-0.3,1.5-0.6,2.1-1.1s1.1-1.1,1.4-1.7c0.3-0.7,0.5-1.4,0.5-2.3c0-0.8-0.1-1.5-0.4-2.1
			c-0.3-0.6-0.6-1.2-1.1-1.7c-0.5-0.5-1.1-0.8-1.7-1.1c-0.7-0.3-1.4-0.4-2.2-0.4h-3.8V65.4z"/>
		<path fill="#FF6C2C" d="M114.1,53h2.4l16.9,18.9h0.2V53h1.9v26.4h-1l-18.3-21h-0.1v20.4h-1.9V53z"/>
		<path fill="#FF6C2C" d="M152.4,52.4l12.2,26.4h-4.4l-4-8.6h-11.1l-4.1,8.6h-2.2l12.4-26.4H152.4z M145.9,68.5h9.5l-4.7-10.2
			L145.9,68.5z"/>
		<path fill="#FF6C2C" d="M185.7,53v1.7h-9.3v24.2h-4.3V54.6h-9.4V53H185.7z"/>
		<path fill="#FF6C2C" d="M189.7,53h4.3v25.8h-4.3V53z"/>
		<path fill="#FF6C2C" d="M213.7,79.4c-1.3,0-2.6-0.2-3.8-0.5s-2.4-0.8-3.4-1.4c-1.1-0.6-2-1.3-2.9-2.1c-0.9-0.8-1.6-1.8-2.2-2.8
			c-0.6-1-1.1-2.1-1.4-3.3c-0.3-1.2-0.5-2.4-0.5-3.6c0-1.2,0.2-2.4,0.5-3.6c0.3-1.1,0.8-2.2,1.4-3.2c0.6-1,1.3-1.9,2.2-2.7
			c0.9-0.8,1.8-1.5,2.9-2.1c1-0.6,2.2-1,3.4-1.3c1.2-0.3,2.5-0.5,3.8-0.5s2.6,0.2,3.8,0.5c1.2,0.3,2.4,0.8,3.4,1.3
			c1,0.6,2,1.3,2.9,2.1c0.9,0.8,1.6,1.7,2.2,2.7c0.6,1,1.1,2,1.4,3.2c0.3,1.1,0.5,2.3,0.5,3.6c0,1.2-0.2,2.5-0.5,3.6
			c-0.3,1.2-0.8,2.3-1.4,3.3c-0.6,1-1.3,1.9-2.2,2.8c-0.9,0.8-1.8,1.5-2.9,2.1c-1.1,0.6-2.2,1.1-3.4,1.4S215,79.4,213.7,79.4z
			 M213.7,78.1c1.5,0,2.8-0.3,3.9-0.9c1.1-0.6,2.1-1.5,2.9-2.6c0.8-1.1,1.4-2.4,1.8-3.9c0.4-1.5,0.6-3.2,0.6-5
			c0-1.8-0.2-3.4-0.6-4.9s-1-2.8-1.8-3.8c-0.8-1.1-1.7-1.9-2.9-2.5c-1.1-0.6-2.4-0.9-3.9-0.9c-1.5,0-2.8,0.3-4,0.9
			c-1.1,0.6-2.1,1.4-2.9,2.5c-0.8,1.1-1.3,2.3-1.7,3.8c-0.4,1.5-0.6,3.1-0.6,4.9c0,1.8,0.2,3.4,0.6,5c0.4,1.5,1,2.8,1.7,3.9
			c0.8,1.1,1.7,2,2.9,2.6C210.8,77.8,212.2,78.1,213.7,78.1z"/>
		<path fill="#FF6C2C" d="M233.3,53h2.4l16.9,18.9h0.2V53h1.9v26.4h-1l-18.3-21h-0.1v20.4h-1.9V53z"/>
		<path fill="#FF6C2C" d="M271.6,52.4l12.2,26.4h-4.4l-4-8.6h-11.1l-4.1,8.6h-2.2l12.4-26.4H271.6z M265.1,68.5h9.5l-4.7-10.2
			L265.1,68.5z"/>
		<path fill="#FF6C2C" d="M287.1,53h4.3v24.2h13v1.7h-17.3V53z"/>
	</g>
</g>
<g id="Layer_2">
</g>
</svg>
