<?xml version="1.0" encoding="utf-8"?>
<!-- Generator: Adobe Illustrator 17.1.0, SVG Export Plug-In . SVG Version: 6.00 Build 0)  -->
<!DOCTYPE svg PUBLIC "-//W3C//DTD SVG 1.1//EN" "http://www.w3.org/Graphics/SVG/1.1/DTD/svg11.dtd">
<svg version="1.1" id="Layer_1" xmlns="http://www.w3.org/2000/svg" xmlns:xlink="http://www.w3.org/1999/xlink" x="0px" y="0px"
	 viewBox="306 0 348.1 560" enable-background="new 306 0 348.1 560" xml:space="preserve">
<g>
	<polygon fill="#FFFFFF" points="654,508.5 474.3,560 306,508.5 306,0 654,0 	"/>
	<g>
		<g>
			<path fill="#FF6C2C" d="M394.6,280.2c0,0,135.2-14.9,157.9-150.5c0,0,25.3,52.5,9.9,89.6c0,0-75.3,89.6-175.3,87.1L394.6,280.2z"
				/>
			<path fill="#FA8A3B" d="M383.2,343.1c0,0,152-121.8,75.3-303c0,0,70.8,44.1,80.2,100.5c0,0-21.8,165.4-144.1,239.6L383.2,343.1z"
				/>
			<path fill="#FA8A3B" d="M555,128.2c0,0,35.6,61.4,17.8,85.2C572.8,213.4,608,183.2,555,128.2z"/>
		</g>
		<g display="none">
			<path display="inline" fill="#FF6C2C" d="M368.8,413.4v14.9h-5.4v-31.7h5.4V411h15.8v-14.4h5.4v31.7h-5.4v-14.9H368.8z"/>
			<path display="inline" fill="#FF6C2C" d="M413.9,429.3c-1.5,0-3,0-4.5-0.5s-3-1-4-1.5c-1.5-0.5-2.5-1.5-3.5-2.5c-1-1-2-2-2.5-3.5
				c-0.5-1-1.5-2.5-1.5-4c-0.5-1.5-0.5-3-0.5-4.5c0-1.5,0-3,0.5-4.5c0.5-1.5,1-2.5,1.5-4c0.5-1,1.5-2.5,2.5-3.5c1-1,2-2,3.5-2.5
				c1.5-0.5,2.5-1.5,4-1.5c1.5-0.5,3-0.5,4.5-0.5s3,0,4.5,0.5c1.5,0.5,3,1,4,1.5c1.5,0.5,2.5,1.5,3.5,2.5c1,1,2,2,2.5,3.5
				c0.5,1,1.5,2.5,1.5,4c0.5,1.5,0.5,3,0.5,4.5c0,1.5,0,3-0.5,4.5c-0.5,1.5-1,3-1.5,4c-0.5,1-1.5,2.5-2.5,3.5c-1,1-2,2-3.5,2.5
				c-1.5,0.5-2.5,1.5-4,1.5C416.9,429.3,415.4,429.3,413.9,429.3z M413.9,427.8c2,0,3.5-0.5,5-1c1.5-1,2.5-2,3.5-3c1-1.5,1.5-3,2-5
				c0.5-2,0.5-4,0.5-5.9c0-2,0-4-0.5-5.9c-0.5-2-1-3.5-2-4.5c-1-1.5-2-2.5-3.5-3c-1.5-0.5-3-1-5-1c-2,0-3.5,0.5-5,1
				c-1.5,0.5-2.5,2-3.5,3c-1,1.5-1.5,3-2,4.5c-0.5,2-0.5,4-0.5,5.9c0,2,0,4,0.5,5.9c0.5,2,1,3.5,2,5c1,1.5,2,2.5,3.5,3
				C410.4,427.3,411.9,427.8,413.9,427.8z"/>
			<path display="inline" fill="#FF6C2C" d="M446.1,427.3c1,0,1.5,0,2.5-0.5c1,0,1.5-0.5,2-1c0.5-0.5,1-1,1.5-1.5
				c0.5-0.5,0.5-1.5,0.5-2c0-1-0.5-2-1-2.5c-0.5-1-1-1.5-2-2c-1-0.5-1.5-1-3-2c-1-0.5-2-1-3-1.5c-1-0.5-2-1-3-2c-1-0.5-2-1.5-3-2
				c-1-1-1.5-1.5-2-2.5c-0.5-1-1-2-1-3s0-2.5,0.5-3.5c0.5-1,1-2,2-2.5c1-1,2-1.5,3-2c1.5-0.5,3-0.5,4.5-0.5c3,0,5.4,0.5,6.9,2
				c1.5,1.5,3,3,4,5.4l-2.5,1.5c-0.5-1-0.5-2-1-2.5c-0.5-1-1-1.5-2-2c-0.5-0.5-1.5-1-2.5-1.5c-1-0.5-2-0.5-3-0.5c-1,0-2,0-2.5,0.5
				c-1,0.5-1.5,0.5-2,1c-0.5,0.5-1,1-1,1.5c0.5,0,0.5,0.5,0.5,1c0,1,0.5,1.5,1,2.5c0.5,0.5,1,1.5,2,2c1,0.5,2,1,3,2
				c1,0.5,2,1,3.5,1.5c1,0.5,2,1,3.5,2c1,0.5,2,1.5,3,2c1,1,1.5,1.5,2,2.5c0.5,1,1,2,1,3c0,1.5,0,2.5-0.5,3.5c-0.5,1-1,2-2,3
				c-1,1-2,1.5-3.5,2c-1.5,0.5-3,0.5-5,0.5c-1.5,0-3,0-4-0.5c-1-0.5-2.5-1-3-1.5c-1-0.5-1.5-1.5-2.5-2.5c-0.5-1-1-2-1.5-3l3-1
				c0.5,1,1,2,1.5,3c0.5,1,1,1.5,2,2c1,0.5,1.5,1,2.5,1.5C444.1,427.3,445.1,427.3,446.1,427.3z"/>
			<path display="inline" fill="#FF6C2C" d="M462.9,397.1h9.9c1.5,0,3,0,4.5,0.5c1.5,0.5,2.5,1,4,2c1,1,2,1.5,2.5,3c0.5,1,1,2.5,1,4
				c0,1.5-0.5,2.5-1,4c-0.5,1-1.5,2-2.5,2.5c-1,0.5-2,1-3.5,1.5c-1.5,0.5-2.5,0.5-4,0.5c-0.5,0-1,0-1.5,0c-0.5,0-1,0-2,0
				c-0.5,0-1,0-1.5,0c-0.5,0-1,0-1,0v14.4h-5.4v-32.2H462.9z M468.4,412.4c0.5,0,1,0.5,2,0.5c0.5,0,1.5,0,2,0c1,0,2,0,3-0.5
				c1-0.5,1.5-1,2-1.5c0.5-0.5,1-1.5,1.5-2c0.5-1,0.5-1.5,0.5-2.5c0-1,0-2-0.5-3c-0.5-1-1-1.5-1.5-2c-0.5-0.5-1.5-1-2.5-1.5
				c-1-0.5-2-0.5-3-0.5h-4v12.9H468.4z"/>
			<path display="inline" fill="#FF6C2C" d="M489.7,397.1h5.4v31.7h-5.4V397.1z"/>
			<path display="inline" fill="#FF6C2C" d="M527.8,397.1v2h-11.4v29.2h-5.4v-29.2h-11.4v-2H527.8z"/>
			<path display="inline" fill="#FF6C2C" d="M542.1,396.6l14.9,32.2h-5.4l-5-10.4h-13.4l-5,10.4h-2.5l15.3-32.2H542.1z M534.2,415.9
				h11.4l-5.9-12.4L534.2,415.9z"/>
			<path display="inline" fill="#FF6C2C" d="M561,397.1h5.4v29.2h15.8v2H561V397.1z"/>
			<path display="inline" fill="#FF6C2C" d="M595.1,427.3c1,0,1.5,0,2.5-0.5c1,0,1.5-0.5,2-1c0.5-0.5,1-1,1.5-1.5
				c0.5-0.5,0.5-1.5,0.5-2c0-1,0-2-1-2.5c-0.5-1-1-1.5-2-2c-1-0.5-1.5-1-3-2c-1-0.5-2-1-3-1.5c-1-0.5-2-1-3-2c-1-0.5-2-1.5-3-2
				c-1-1-1.5-1.5-2-2.5c-0.5-1-1-2-1-3s0-2.5,0.5-3.5s1-2,2-2.5c1-0.5,2-1.5,3-2c1.5-0.5,3-0.5,4.5-0.5c3,0,5.4,0.5,6.9,2
				c1.5,1.5,3,3,4,5.4l-2.5,1.5c-0.5-1-0.5-2-1-2.5c-0.5-1-1-1.5-2-2c-0.5-0.5-1.5-1-2.5-1.5c-1-0.5-2-0.5-3-0.5c-1,0-2,0-2.5,0.5
				c-1,0.5-1.5,0.5-2,1c-0.5,0.5-1,1-1,1.5c0,0,0,0.5,0,1c0,1,0.5,1.5,1,2.5c0.5,0.5,1,1.5,2,2c1,0.5,2,1,3,2c1,0.5,2,1,3.5,1.5
				c1,0.5,2,1,3.5,2c1,0.5,2,1.5,3,2c1,1,1.5,1.5,2,2.5c0.5,1,1,2,1,3c0,1.5,0,2.5-0.5,3.5s-1,2-2,3c-1,1-2,1.5-3.5,2
				c-1.5,0.5-3,0.5-5,0.5c-1.5,0-3,0-4-0.5c-1-0.5-2.5-1-3-1.5c-1-0.5-1.5-1.5-2.5-2.5c-0.5-1-1-2-1.5-3l3-1c0.5,1,1,2,1.5,3
				s1,1.5,2,2c1,0.5,1.5,1,2.5,1.5C593.1,427.3,593.6,427.3,595.1,427.3z"/>
			<path display="inline" fill="#FF6C2C" d="M366.4,438.2h3.5v20.3h-3.5V438.2z"/>
			<path display="inline" fill="#FF6C2C" d="M374.8,438.2h2l13.4,14.9l0,0v-14.9h1.5V459h-1l-14.4-16.3l0,0v15.8h-1.5
				C374.8,458.5,374.8,438.2,374.8,438.2z"/>
			<path display="inline" fill="#FF6C2C" d="M412.9,438.2v1.5h-7.4v18.8H402v-18.8h-7.4v-1.5H412.9z"/>
			<path display="inline" fill="#FF6C2C" d="M430.2,438.2v1.5h-10.9v7.4h6.9v1.5h-6.9v8.9h10.9v1.5h-14.4v-20.3h14.4V438.2z"/>
			<path display="inline" fill="#FF6C2C" d="M434.2,438.2h6.9c1,0,2.5,0,3.5,0.5c1,0.5,1.5,0.5,2.5,1c0.5,0.5,1,1,1.5,1.5
				c0.5,0.5,0.5,1.5,0.5,2c0,0.5,0,1-0.5,2c0,0.5-0.5,1-1,1.5s-1,1-1.5,1c-0.5,0.5-1.5,0.5-2,1l7.4,9.9h-4l-7.9-9.4h-2.5v9.4h-3.5
				v-20.3H434.2z M437.7,448.1h2c1,0,1.5,0,2-0.5c0.5,0,1-0.5,1.5-1c0.5-0.5,1-1,1-1.5c0.5-0.5,0.5-1,0.5-2c0-0.5,0-1-0.5-1.5
				c0-0.5-0.5-1-1-1.5c-0.5-0.5-1-0.5-1.5-1c-0.5,0-1-0.5-1.5-0.5h-3v9.4H437.7z"/>
			<path display="inline" fill="#FF6C2C" d="M453.5,438.2h2l13.4,14.9l0,0v-14.9h1.5V459h-1L455,442.7l0,0v15.8h-1.5
				C453.5,458.5,453.5,438.2,453.5,438.2z"/>
			<path display="inline" fill="#FF6C2C" d="M483.7,437.7l9.4,20.8h-3.5l-3-6.9h-8.9l-3,6.9h-1.5l9.9-20.8H483.7z M478.3,450.6h7.4
				l-3.5-7.9L478.3,450.6z"/>
			<path display="inline" fill="#FF6C2C" d="M510,438.2v1.5h-7.4v18.8h-3.5v-18.8h-7.4v-1.5H510z"/>
			<path display="inline" fill="#FF6C2C" d="M512.9,438.2h3.5v20.3h-3.5V438.2z"/>
			<path display="inline" fill="#FF6C2C" d="M531.7,459c-1,0-2,0-3-0.5c-1-0.5-2-0.5-2.5-1c-1-0.5-1.5-1-2.5-1.5
				c-0.5-0.5-1.5-1.5-2-2c-0.5-1-1-1.5-1-2.5c-0.5-1-0.5-2-0.5-3s0-2,0.5-3c0.5-1,0.5-2,1-2.5c0.5-1,1-1.5,2-2
				c0.5-0.5,1.5-1,2.5-1.5s1.5-1,2.5-1c1-0.5,2-0.5,3-0.5c1,0,2,0,3,0.5c1,0,2,0.5,2.5,1c1,0.5,1.5,1,2.5,1.5c0.5,0.5,1.5,1.5,2,2
				c0.5,1,1,1.5,1,2.5c0.5,1,0.5,2,0.5,3s0,2-0.5,3c-0.5,1-0.5,2-1,2.5c-0.5,1-1,1.5-2,2c-0.5,0.5-1.5,1-2.5,1.5s-1.5,1-2.5,1
				C533.7,459,532.7,459,531.7,459z M531.7,458c1,0,2,0,3-0.5c1-0.5,1.5-1,2.5-2s1-2,1.5-3s0.5-2.5,0.5-4c0-1.5,0-2.5-0.5-4
				c-0.5-1-1-2-1.5-3s-1.5-1.5-2.5-2c-1-0.5-2-0.5-3-0.5c-1,0-2.5,0-3,0.5c-0.5,0.5-1.5,1-2.5,2c-0.5,1-1,2-1.5,3
				c-0.5,1-0.5,2.5-0.5,4c0,1.5,0,2.5,0.5,4c0.5,1,1,2,1.5,3c0.5,1,1.5,1.5,2.5,2C529.8,458,530.8,458,531.7,458z"/>
			<path display="inline" fill="#FF6C2C" d="M547.6,438.2h2l13.4,14.9l0,0v-14.9h1.5V459h-1l-14.4-16.3l0,0v15.8h-1.5V438.2z"/>
			<path display="inline" fill="#FF6C2C" d="M577.3,437.7l9.4,20.8h-3.5l-3-6.9h-8.9l-3,6.9h-1.5l9.9-20.8H577.3z M572.3,450.6h7.4
				l-3.5-7.9L572.3,450.6z"/>
			<path display="inline" fill="#FF6C2C" d="M589.7,438.2h3.5V457h10.4v1.5h-13.9V438.2z"/>
		</g>
	</g>
</g>
<g>
	<path fill="#FF6C2C" d="M369.4,413.4v15h-5.3v-31.4h5.3v14.3h15.8v-14.3h5.3v31.4h-5.3v-15H369.4z"/>
	<path fill="#FF6C2C" d="M414.2,429.2c-1.6,0-3.2-0.2-4.7-0.6c-1.5-0.4-2.9-1-4.1-1.7c-1.3-0.7-2.4-1.6-3.5-2.6
		c-1.1-1-1.9-2.1-2.7-3.4c-0.7-1.2-1.3-2.6-1.7-4c-0.4-1.4-0.6-2.9-0.6-4.4c0-1.5,0.2-2.9,0.6-4.3c0.4-1.4,1-2.7,1.7-3.9
		c0.7-1.2,1.6-2.3,2.7-3.3c1.1-1,2.2-1.8,3.5-2.5c1.3-0.7,2.7-1.3,4.1-1.6c1.5-0.4,3-0.6,4.7-0.6s3.2,0.2,4.7,0.6
		c1.5,0.4,2.9,0.9,4.1,1.6c1.3,0.7,2.4,1.5,3.5,2.5s1.9,2.1,2.7,3.3c0.7,1.2,1.3,2.5,1.7,3.9c0.4,1.4,0.6,2.8,0.6,4.3
		c0,1.5-0.2,3-0.6,4.4c-0.4,1.4-1,2.7-1.7,4c-0.7,1.2-1.6,2.4-2.7,3.4c-1.1,1-2.2,1.9-3.5,2.6c-1.3,0.7-2.7,1.3-4.1,1.7
		C417.4,429,415.8,429.2,414.2,429.2z M414.2,427.6c1.8,0,3.4-0.4,4.8-1.1c1.4-0.8,2.5-1.8,3.5-3.1c0.9-1.3,1.7-2.9,2.1-4.8
		c0.5-1.8,0.7-3.8,0.7-6c0-2.1-0.2-4.1-0.7-5.9c-0.5-1.8-1.2-3.3-2.1-4.6c-0.9-1.3-2.1-2.3-3.5-3c-1.4-0.7-3-1.1-4.8-1.1
		c-1.8,0-3.4,0.4-4.8,1.1c-1.4,0.7-2.5,1.7-3.5,3c-0.9,1.3-1.6,2.8-2.1,4.6c-0.5,1.8-0.7,3.8-0.7,5.9c0,2.2,0.2,4.2,0.7,6
		c0.5,1.8,1.2,3.4,2.1,4.8c0.9,1.3,2.1,2.4,3.5,3.1C410.8,427.2,412.4,427.6,414.2,427.6z"/>
	<path fill="#FF6C2C" d="M446.6,427.2c0.8,0,1.5-0.1,2.3-0.3c0.8-0.2,1.4-0.5,2-0.9c0.6-0.4,1.1-0.9,1.4-1.5
		c0.4-0.6,0.5-1.3,0.5-2.1c0-1-0.2-1.8-0.7-2.6c-0.5-0.7-1.1-1.4-1.9-2.1c-0.8-0.6-1.7-1.2-2.8-1.8c-1-0.5-2.1-1.1-3.2-1.7
		c-1.1-0.6-2.1-1.1-3.2-1.7c-1-0.6-2-1.3-2.8-2c-0.8-0.7-1.5-1.6-1.9-2.5c-0.5-0.9-0.7-2-0.7-3.2c0-1.2,0.2-2.3,0.7-3.3
		c0.5-1,1.1-1.9,2-2.7c0.9-0.7,1.9-1.3,3.2-1.8c1.3-0.4,2.7-0.6,4.4-0.6c3,0,5.3,0.6,7,1.9c1.7,1.2,3,3,3.7,5.4l-2.7,1.2
		c-0.3-1-0.7-1.8-1.2-2.6c-0.5-0.8-1.1-1.5-1.8-2c-0.7-0.6-1.5-1-2.4-1.3c-0.9-0.3-1.9-0.5-3-0.5c-1,0-1.9,0.1-2.6,0.4
		c-0.7,0.3-1.4,0.6-1.8,1.1c-0.5,0.4-0.9,0.9-1.1,1.5c-0.2,0.6-0.4,1.1-0.4,1.7c0,0.8,0.3,1.6,0.8,2.3c0.5,0.7,1.2,1.3,2,1.9
		c0.8,0.6,1.8,1.2,2.8,1.8c1.1,0.6,2.2,1.1,3.3,1.7c1.1,0.6,2.2,1.2,3.3,1.8c1.1,0.6,2,1.3,2.8,2.1c0.8,0.7,1.5,1.6,2,2.5
		c0.5,0.9,0.8,1.9,0.8,3c0,1.2-0.2,2.4-0.7,3.5c-0.5,1.1-1.2,2-2.1,2.9c-0.9,0.8-2.1,1.5-3.5,1.9c-1.4,0.5-3,0.7-4.9,0.7
		c-1.5,0-2.8-0.2-4-0.5c-1.2-0.3-2.2-0.8-3.1-1.4c-0.9-0.6-1.7-1.4-2.3-2.3c-0.6-0.9-1.2-2-1.6-3.1l2.8-1.2c0.3,1,0.8,1.9,1.3,2.7
		s1.2,1.5,1.9,2.1c0.7,0.6,1.6,1,2.5,1.3C444.6,427,445.6,427.2,446.6,427.2z"/>
	<path fill="#FF6C2C" d="M463.4,397.1h9.9c1.6,0,3.2,0.2,4.6,0.6c1.4,0.4,2.7,1,3.7,1.7c1.1,0.8,1.9,1.7,2.5,2.8
		c0.6,1.1,0.9,2.4,0.9,3.8c0,1.4-0.3,2.7-0.9,3.7c-0.6,1.1-1.4,1.9-2.3,2.6c-1,0.7-2.1,1.2-3.3,1.6c-1.2,0.3-2.5,0.5-3.8,0.5
		c-0.5,0-1.1,0-1.7,0c-0.6,0-1.2-0.1-1.7-0.1c-0.6-0.1-1.1-0.1-1.5-0.2c-0.5-0.1-0.9-0.1-1.1-0.2v14.5h-5.3V397.1z M468.7,412.2
		c0.6,0.2,1.2,0.3,1.9,0.5c0.7,0.2,1.4,0.2,2.1,0.2c1.1,0,2.1-0.2,3-0.5c0.8-0.3,1.6-0.8,2.1-1.4c0.6-0.6,1-1.3,1.3-2.1
		c0.3-0.8,0.4-1.6,0.4-2.5c0-1.1-0.2-2-0.6-2.9c-0.4-0.9-0.9-1.6-1.5-2.2c-0.6-0.6-1.4-1.1-2.2-1.4c-0.9-0.3-1.8-0.5-2.7-0.5h-3.7
		V412.2z"/>
	<path fill="#FF6C2C" d="M489.8,397.1h5.3v31.4h-5.3V397.1z"/>
	<path fill="#FF6C2C" d="M527.9,397.1v2h-11.4v29.3h-5.3v-29.3h-11.4v-2H527.9z"/>
	<path fill="#FF6C2C" d="M542,396.4l14.8,32.1h-5.4l-4.8-10.5h-13.4l-5,10.5h-2.6l15.1-32.1H542z M534.1,416h11.6l-5.7-12.4
		L534.1,416z"/>
	<path fill="#FF6C2C" d="M560.8,397.1h5.3v29.3h15.8v2h-21.1V397.1z"/>
	<path fill="#FF6C2C" d="M594.9,427.2c0.8,0,1.5-0.1,2.3-0.3c0.8-0.2,1.4-0.5,2-0.9c0.6-0.4,1.1-0.9,1.4-1.5
		c0.4-0.6,0.5-1.3,0.5-2.1c0-1-0.2-1.8-0.7-2.6c-0.5-0.7-1.1-1.4-2-2.1c-0.8-0.6-1.7-1.2-2.8-1.8c-1-0.5-2.1-1.1-3.2-1.7
		c-1.1-0.6-2.1-1.1-3.2-1.7c-1-0.6-2-1.3-2.8-2c-0.8-0.7-1.5-1.6-1.9-2.5c-0.5-0.9-0.7-2-0.7-3.2c0-1.2,0.2-2.3,0.7-3.3
		c0.5-1,1.1-1.9,2-2.7c0.9-0.7,1.9-1.3,3.2-1.8c1.3-0.4,2.7-0.6,4.4-0.6c3,0,5.3,0.6,7,1.9c1.7,1.2,3,3,3.7,5.4l-2.7,1.2
		c-0.3-1-0.7-1.8-1.2-2.6c-0.5-0.8-1.1-1.5-1.8-2c-0.7-0.6-1.5-1-2.4-1.3c-0.9-0.3-1.9-0.5-3-0.5c-1,0-1.9,0.1-2.6,0.4
		c-0.7,0.3-1.4,0.6-1.8,1.1c-0.5,0.4-0.9,0.9-1.1,1.5c-0.2,0.6-0.4,1.1-0.4,1.7c0,0.8,0.3,1.6,0.8,2.3c0.5,0.7,1.2,1.3,2,1.9
		c0.8,0.6,1.8,1.2,2.8,1.8c1.1,0.6,2.1,1.1,3.3,1.7c1.1,0.6,2.2,1.2,3.3,1.8c1.1,0.6,2,1.3,2.8,2.1c0.8,0.7,1.5,1.6,2,2.5
		c0.5,0.9,0.8,1.9,0.8,3c0,1.2-0.2,2.4-0.7,3.5c-0.5,1.1-1.2,2-2.1,2.9c-0.9,0.8-2.1,1.5-3.5,1.9c-1.4,0.5-3,0.7-4.9,0.7
		c-1.5,0-2.8-0.2-4-0.5c-1.2-0.3-2.2-0.8-3.1-1.4c-0.9-0.6-1.7-1.4-2.3-2.3c-0.6-0.9-1.2-2-1.6-3.1l2.8-1.2c0.3,1,0.8,1.9,1.3,2.7
		c0.6,0.8,1.2,1.5,1.9,2.1c0.7,0.6,1.6,1,2.5,1.3C592.9,427,593.9,427.2,594.9,427.2z"/>
	<path fill="#FF6C2C" d="M366.8,438h3.4v20.3h-3.4V438z"/>
	<path fill="#FF6C2C" d="M375.3,438h1.9l13.3,14.8h0.1V438h1.5v20.8h-0.8L377,442.3h-0.1v16h-1.5V438z"/>
	<path fill="#FF6C2C" d="M413.4,438v1.3h-7.3v19h-3.4v-19h-7.4V438H413.4z"/>
	<path fill="#FF6C2C" d="M430.6,438v1.3h-10.7v7.3h7.2v1.3h-7.2v9.1h10.7v1.3h-14.1V438H430.6z"/>
	<path fill="#FF6C2C" d="M434.4,438h7c1.2,0,2.3,0.1,3.2,0.4c0.9,0.3,1.7,0.6,2.3,1.1c0.6,0.5,1.1,1,1.4,1.7
		c0.3,0.6,0.5,1.4,0.5,2.1c0,0.6-0.1,1.2-0.4,1.8c-0.2,0.6-0.6,1-1,1.5c-0.4,0.4-1,0.8-1.6,1.2c-0.6,0.3-1.3,0.6-2,0.7l7.4,9.9h-3.9
		l-7.1-9.5h-2.4v9.5h-3.4V438z M437.8,447.7h2c0.8,0,1.5-0.1,2.1-0.3c0.6-0.2,1.2-0.5,1.7-0.9s0.8-0.8,1.1-1.4
		c0.3-0.5,0.4-1.1,0.4-1.8c0-0.6-0.1-1.2-0.3-1.7c-0.2-0.5-0.5-0.9-0.9-1.3c-0.4-0.4-0.8-0.6-1.4-0.9s-1.1-0.3-1.7-0.3h-3V447.7z"/>
	<path fill="#FF6C2C" d="M453.8,438h1.9l13.3,14.8h0.1V438h1.5v20.8h-0.8l-14.4-16.5h-0.1v16h-1.5V438z"/>
	<path fill="#FF6C2C" d="M483.9,437.5l9.6,20.8H490l-3.1-6.8h-8.7l-3.2,6.8h-1.7l9.8-20.8H483.9z M478.8,450.2h7.5l-3.7-8
		L478.8,450.2z"/>
	<path fill="#FF6C2C" d="M510.1,438v1.3h-7.3v19h-3.4v-19H492V438H510.1z"/>
	<path fill="#FF6C2C" d="M513.2,438h3.4v20.3h-3.4V438z"/>
	<path fill="#FF6C2C" d="M532,458.8c-1,0-2.1-0.1-3-0.4c-1-0.3-1.9-0.6-2.7-1.1c-0.8-0.5-1.6-1-2.3-1.7c-0.7-0.7-1.3-1.4-1.7-2.2
		c-0.5-0.8-0.8-1.7-1.1-2.6c-0.3-0.9-0.4-1.9-0.4-2.9c0-1,0.1-1.9,0.4-2.8c0.3-0.9,0.6-1.7,1.1-2.5c0.5-0.8,1.1-1.5,1.7-2.1
		c0.7-0.6,1.4-1.2,2.3-1.6c0.8-0.5,1.7-0.8,2.7-1.1c1-0.2,2-0.4,3-0.4c1,0,2.1,0.1,3,0.4c1,0.2,1.9,0.6,2.7,1.1
		c0.8,0.5,1.6,1,2.3,1.6c0.7,0.6,1.3,1.3,1.7,2.1c0.5,0.8,0.8,1.6,1.1,2.5c0.3,0.9,0.4,1.8,0.4,2.8c0,1-0.1,1.9-0.4,2.8
		c-0.3,0.9-0.6,1.8-1.1,2.6c-0.5,0.8-1.1,1.5-1.7,2.2c-0.7,0.7-1.4,1.2-2.3,1.7c-0.8,0.5-1.7,0.8-2.7,1.1
		C534.1,458.6,533.1,458.8,532,458.8z M532,457.8c1.2,0,2.2-0.2,3.1-0.7c0.9-0.5,1.6-1.2,2.3-2c0.6-0.9,1.1-1.9,1.4-3.1
		c0.3-1.2,0.5-2.5,0.5-3.9c0-1.4-0.2-2.7-0.5-3.8c-0.3-1.2-0.8-2.2-1.4-3c-0.6-0.8-1.4-1.5-2.3-2c-0.9-0.5-1.9-0.7-3.1-0.7
		c-1.2,0-2.2,0.2-3.1,0.7c-0.9,0.5-1.7,1.1-2.3,2c-0.6,0.8-1.1,1.8-1.4,3c-0.3,1.2-0.5,2.4-0.5,3.8c0,1.4,0.2,2.7,0.5,3.9
		c0.3,1.2,0.8,2.2,1.4,3.1c0.6,0.9,1.4,1.5,2.3,2C529.8,457.5,530.8,457.8,532,457.8z"/>
	<path fill="#FF6C2C" d="M547.5,438h1.9l13.3,14.8h0.1V438h1.5v20.8h-0.8l-14.4-16.5H549v16h-1.5V438z"/>
	<path fill="#FF6C2C" d="M577.5,437.5l9.6,20.8h-3.5l-3.1-6.8h-8.7l-3.2,6.8h-1.7l9.8-20.8H577.5z M572.4,450.2h7.5l-3.7-8
		L572.4,450.2z"/>
	<path fill="#FF6C2C" d="M589.7,438h3.4v19h10.2v1.3h-13.6V438z"/>
</g>
</svg>
